<svg t="1697014505619" class="icon" viewBox="0 0 1024 1024" version="1.1" xmlns="http://www.w3.org/2000/svg" p-id="1904" width="200" height="200"><path d="M896 917.333333V661.333333a21.333333 21.333333 0 0 0-21.333333-21.333333H149.333333a21.333333 21.333333 0 0 0-21.333333 21.333333v256h42.666667V682.666667h682.666666v234.666666h42.666667z" fill="#000000" p-id="1905"></path><path d="M533.333333 725.333333a21.333333 21.333333 0 0 1 21.333334 21.333334v42.666666a21.333333 21.333333 0 0 1-21.333334 21.333334H277.333333a21.333333 21.333333 0 0 1-21.333333-21.333334v-42.666666a21.333333 21.333333 0 0 1 21.333333-21.333334h256zM819.989333 196.330667a85.333333 85.333333 0 1 0-103.893333 135.402666 85.333333 85.333333 0 0 0 103.893333-135.402666z m-153.493333-10.24a128 128 0 1 1 203.093333 155.882666 128 128 0 0 1-203.093333-155.861333z" fill="#000000" p-id="1906"></path><path d="M676.48 339.050667L607.573333 382.933333l87.082667 66.816 24.576-77.888 40.704 12.842667-33.770667 106.922667a21.333333 21.333333 0 0 1-33.322666 10.496l-135.402667-103.893334a21.333333 21.333333 0 0 1 1.536-34.901333l94.549333-60.288 22.933334 35.989333z" fill="#000000" p-id="1907"></path><path d="M668.053333 429.333333l-77.930666 101.546667-33.834667-25.962667 77.909333-101.546666 33.856 25.962666zM551.189333 581.653333l-142.869333 186.176-33.856-25.984 142.869333-186.154666 33.856 25.962666z" fill="#000000" p-id="1908"></path><path d="M573.226667 517.909333a21.333333 21.333333 0 1 0-25.984 33.834667 21.333333 21.333333 0 0 0 25.962666-33.834667z m-63.786667-22.058666a64 64 0 1 1 101.546667 77.930666 64 64 0 0 1-101.546667-77.909333zM149.333333 234.666667h512v42.666666H149.333333v-42.666666z" fill="#000000" p-id="1909"></path><path d="M187.797333 256l101.376-67.584-23.68-35.498667-128 85.333334a21.333333 21.333333 0 0 0 0 35.498666l128 85.333334 23.68-35.498667L187.797333 256z" fill="#000000" p-id="1910"></path></svg>